<svg width="68" height="68" viewBox="0 0 68 68" fill="none" xmlns="http://www.w3.org/2000/svg">
<circle cx="34" cy="34" r="34" fill="#FF4A4A"/>
<g clip-path="url(#clip0_259_1007)">
<path d="M47.4993 29.0869C45.3552 25.6334 41.767 23.0434 37.4787 22.1389C37.3912 22.55 37.3474 23.0023 37.3474 23.4545C37.3474 25.5101 38.3976 27.3602 39.9729 28.5113C39.9729 28.5113 39.9729 28.5113 40.0167 28.5113C40.1042 28.5524 40.1917 28.6347 40.2355 28.6758C42.6859 30.4436 44.305 33.2393 44.305 36.3638C44.305 41.7084 39.7104 46.0252 34.0218 46.0252C28.3333 46.0252 23.7387 41.7084 23.7387 36.3638C23.7387 33.2804 25.2702 30.5258 27.6769 28.758C27.6769 28.758 27.6769 28.758 27.7207 28.758C27.8519 28.6758 27.9832 28.5524 28.1145 28.4702C29.6898 27.2779 30.6962 25.469 30.6962 23.4134C30.6962 22.9611 30.6525 22.5089 30.5649 22.0978C26.2767 23.0023 22.6885 25.5923 20.5444 29.0458C19.2316 31.1836 18.444 33.6915 18.444 36.3638C18.444 44.4218 25.4015 50.9998 34.0218 50.9998C42.5984 50.9998 49.5559 44.4629 49.5559 36.3638C49.5559 33.7326 48.812 31.2247 47.4993 29.0869Z" fill="white"/>
<path d="M34.0218 41.0098C36.6318 41.0098 38.7476 39.0219 38.7476 36.5697C38.7476 34.1174 36.6318 32.1295 34.0218 32.1295C31.4117 32.1295 29.2959 34.1174 29.2959 36.5697C29.2959 39.0219 31.4117 41.0098 34.0218 41.0098Z" fill="white"/>
<path d="M30.6963 23.4547C30.6963 25.5103 29.6898 27.3192 28.1145 28.5115C27.9833 28.5937 27.852 28.717 27.7207 28.7993C27.7207 28.7993 27.7207 28.7993 27.677 28.7993C26.583 29.4982 25.2703 29.9093 23.8263 29.9093C22.601 29.9093 21.5071 29.6215 20.5006 29.0871C18.444 27.977 17 25.8803 17 23.4547C17 19.8779 20.0631 17 23.87 17C27.1519 17 29.9086 19.2201 30.565 22.1391C30.6525 22.5502 30.6963 23.0024 30.6963 23.4547Z" fill="white"/>
<path d="M51 23.4547C51 25.8803 49.556 27.977 47.4556 29.0871C46.4929 29.5804 45.3552 29.8682 44.13 29.8682C42.6422 29.8682 41.2857 29.416 40.1917 28.6759C40.1042 28.6348 40.0167 28.5526 39.973 28.5115C39.973 28.5115 39.973 28.5115 39.9292 28.5115C38.3101 27.3192 37.3037 25.5103 37.3037 23.4547C37.3037 23.0024 37.3475 22.5502 37.435 22.1391C38.0914 19.2201 40.8481 17 44.1737 17C47.9369 17 51 19.8779 51 23.4547Z" fill="white"/>
</g>
<defs>
<clipPath id="clip0_259_1007">
<rect width="34" height="34" fill="white" transform="translate(17 17)"/>
</clipPath>
</defs>
</svg>
