<svg width="17" height="11" viewBox="0 0 17 11" fill="none" xmlns="http://www.w3.org/2000/svg">
<path d="M0.980854 7.28729C0.894697 7.65386 0.851479 8.04967 0.851479 8.37254C0.851479 9.64482 1.54138 10.4894 3.00754 10.4894C4.22348 10.4894 5.20926 9.76735 5.91904 8.60139L5.48563 10.3407H7.90016L9.28016 4.80582C9.62516 3.40445 10.2935 2.67704 11.3069 2.67704C12.1047 2.67704 12.6005 3.17317 12.6005 3.99217C12.6005 4.22945 12.5789 4.48792 12.4927 4.76832L11.7811 7.31242C11.6733 7.67898 11.6304 8.04573 11.6304 8.39045C11.6304 9.59823 12.3417 10.4816 13.8294 10.4816C15.1015 10.4816 16.1147 9.66273 16.6754 7.70064L15.7268 7.33445C15.2524 8.64892 14.8427 8.88657 14.5193 8.88657C14.1959 8.88657 14.0233 8.67114 14.0233 8.24017C14.0233 8.04611 14.0667 7.83076 14.1312 7.57145L14.8213 5.09289C14.9937 4.51089 15.0584 3.99479 15.0584 3.52061C15.0584 1.66642 13.9372 0.69873 12.5789 0.69873C11.3069 0.69873 10.0132 1.84614 9.36651 3.05373L9.8407 0.88623H6.15407L5.63657 2.79536H7.36148L6.29929 7.04786C5.4652 8.90204 3.93304 8.93214 3.74076 8.8891C3.42501 8.81785 3.22307 8.69795 3.22307 8.2877C3.22307 8.05098 3.2662 7.71095 3.37401 7.30098L4.9912 0.88623H0.894697L0.377197 2.79536H2.08035L0.980947 7.28729" fill="white"/>
</svg>
